<mxfile host="app.diagrams.net" modified="2021-09-28T07:16:03.796Z" agent="5.0 (Macintosh; Intel Mac OS X 10_15_7) AppleWebKit/605.1.15 (KHTML, like Gecko) Version/14.1 Safari/605.1.15" etag="wwxgD6LGoLG3u7At_ox3" version="15.3.5" type="github">
  <diagram id="k9AqJFTYgDNyhYzo5oNE" name="Page-1">
    <mxGraphModel dx="1426" dy="821" grid="1" gridSize="10" guides="1" tooltips="1" connect="1" arrows="1" fold="1" page="1" pageScale="1" pageWidth="827" pageHeight="670" math="0" shadow="0">
      <root>
        <mxCell id="0" />
        <mxCell id="1" parent="0" />
        <mxCell id="kmwr0jCoPVM3JByVszYf-2" value="" style="rounded=0;whiteSpace=wrap;html=1;hachureGap=4;pointerEvents=0;fillColor=default;" vertex="1" parent="1">
          <mxGeometry x="39" y="40" width="761" height="600" as="geometry" />
        </mxCell>
        <mxCell id="kmwr0jCoPVM3JByVszYf-4" value="" style="rounded=0;whiteSpace=wrap;html=1;hachureGap=4;pointerEvents=0;fillColor=none;" vertex="1" parent="1">
          <mxGeometry x="80" y="100" width="240" height="500" as="geometry" />
        </mxCell>
        <mxCell id="kmwr0jCoPVM3JByVszYf-5" value="" style="rounded=0;whiteSpace=wrap;html=1;hachureGap=4;pointerEvents=0;fillColor=none;" vertex="1" parent="1">
          <mxGeometry x="360" y="100" width="400" height="500" as="geometry" />
        </mxCell>
        <mxCell id="kmwr0jCoPVM3JByVszYf-6" value="" style="rounded=0;whiteSpace=wrap;html=1;hachureGap=4;pointerEvents=0;fillColor=none;" vertex="1" parent="1">
          <mxGeometry x="39" y="40" width="761" height="40" as="geometry" />
        </mxCell>
        <mxCell id="kmwr0jCoPVM3JByVszYf-7" value="&lt;font style=&quot;font-size: 18px&quot;&gt;Metabolism Estimation Tab&lt;/font&gt;" style="text;html=1;align=center;verticalAlign=middle;resizable=0;points=[];autosize=1;strokeColor=none;fillColor=none;" vertex="1" parent="1">
          <mxGeometry x="294" y="50" width="240" height="20" as="geometry" />
        </mxCell>
        <mxCell id="kmwr0jCoPVM3JByVszYf-8" value="" style="rounded=0;whiteSpace=wrap;html=1;hachureGap=4;pointerEvents=0;fillColor=none;" vertex="1" parent="1">
          <mxGeometry x="400" y="140" width="320" height="130" as="geometry" />
        </mxCell>
        <mxCell id="kmwr0jCoPVM3JByVszYf-10" value="&lt;font style=&quot;font-size: 18px&quot;&gt;GPP + Ecosystem respiration&lt;br&gt;timeseries plot&lt;br&gt;&lt;/font&gt;" style="text;html=1;align=center;verticalAlign=middle;resizable=0;points=[];autosize=1;strokeColor=none;fillColor=none;" vertex="1" parent="1">
          <mxGeometry x="430" y="185" width="260" height="40" as="geometry" />
        </mxCell>
        <mxCell id="kmwr0jCoPVM3JByVszYf-11" value="&lt;font style=&quot;font-size: 18px&quot;&gt;DO predicted + DO observed&lt;br&gt;timeseries&amp;nbsp;plot&lt;br&gt;&lt;/font&gt;" style="text;html=1;align=center;verticalAlign=middle;resizable=0;points=[];autosize=1;strokeColor=none;fillColor=none;" vertex="1" parent="1">
          <mxGeometry x="435" y="475" width="250" height="40" as="geometry" />
        </mxCell>
        <mxCell id="kmwr0jCoPVM3JByVszYf-12" value="" style="rounded=0;whiteSpace=wrap;html=1;hachureGap=4;pointerEvents=0;fillColor=none;" vertex="1" parent="1">
          <mxGeometry x="120" y="160" width="160" height="40" as="geometry" />
        </mxCell>
        <mxCell id="kmwr0jCoPVM3JByVszYf-13" value="" style="rounded=0;whiteSpace=wrap;html=1;hachureGap=4;pointerEvents=0;fillColor=none;" vertex="1" parent="1">
          <mxGeometry x="120" y="240" width="160" height="40" as="geometry" />
        </mxCell>
        <mxCell id="kmwr0jCoPVM3JByVszYf-14" value="" style="rounded=0;whiteSpace=wrap;html=1;hachureGap=4;pointerEvents=0;fillColor=none;" vertex="1" parent="1">
          <mxGeometry x="120" y="320" width="160" height="40" as="geometry" />
        </mxCell>
        <mxCell id="kmwr0jCoPVM3JByVszYf-15" value="&lt;font style=&quot;font-size: 18px&quot;&gt;Select site&lt;br&gt;&lt;/font&gt;" style="text;html=1;align=center;verticalAlign=middle;resizable=0;points=[];autosize=1;strokeColor=none;fillColor=none;" vertex="1" parent="1">
          <mxGeometry x="150" y="170" width="100" height="20" as="geometry" />
        </mxCell>
        <mxCell id="kmwr0jCoPVM3JByVszYf-16" value="&lt;font style=&quot;font-size: 18px&quot;&gt;Select year&lt;br&gt;&lt;/font&gt;" style="text;html=1;align=center;verticalAlign=middle;resizable=0;points=[];autosize=1;strokeColor=none;fillColor=none;" vertex="1" parent="1">
          <mxGeometry x="145" y="250" width="110" height="20" as="geometry" />
        </mxCell>
        <mxCell id="kmwr0jCoPVM3JByVszYf-17" value="&lt;font style=&quot;font-size: 18px&quot;&gt;Select date range&lt;br&gt;&lt;/font&gt;" style="text;html=1;align=center;verticalAlign=middle;resizable=0;points=[];autosize=1;strokeColor=none;fillColor=none;" vertex="1" parent="1">
          <mxGeometry x="120" y="330" width="160" height="20" as="geometry" />
        </mxCell>
        <mxCell id="kmwr0jCoPVM3JByVszYf-20" value="" style="rounded=0;whiteSpace=wrap;html=1;hachureGap=4;pointerEvents=0;fillColor=none;" vertex="1" parent="1">
          <mxGeometry x="400" y="285" width="320" height="130" as="geometry" />
        </mxCell>
        <mxCell id="kmwr0jCoPVM3JByVszYf-21" value="" style="rounded=0;whiteSpace=wrap;html=1;hachureGap=4;pointerEvents=0;fillColor=none;" vertex="1" parent="1">
          <mxGeometry x="400" y="430" width="320" height="130" as="geometry" />
        </mxCell>
        <mxCell id="kmwr0jCoPVM3JByVszYf-22" value="&lt;font style=&quot;font-size: 18px&quot;&gt;GPP + ER&amp;nbsp;cloud plot&lt;br&gt;&lt;/font&gt;" style="text;html=1;align=center;verticalAlign=middle;resizable=0;points=[];autosize=1;strokeColor=none;fillColor=none;" vertex="1" parent="1">
          <mxGeometry x="465" y="335" width="180" height="20" as="geometry" />
        </mxCell>
        <mxCell id="kmwr0jCoPVM3JByVszYf-23" value="" style="rounded=0;whiteSpace=wrap;html=1;hachureGap=4;pointerEvents=0;fillColor=none;" vertex="1" parent="1">
          <mxGeometry x="120" y="400" width="160" height="40" as="geometry" />
        </mxCell>
        <mxCell id="kmwr0jCoPVM3JByVszYf-24" value="&lt;font style=&quot;font-size: 18px&quot;&gt;Add K600&lt;br&gt;&lt;/font&gt;" style="text;html=1;align=center;verticalAlign=middle;resizable=0;points=[];autosize=1;strokeColor=none;fillColor=none;" vertex="1" parent="1">
          <mxGeometry x="150" y="410" width="100" height="20" as="geometry" />
        </mxCell>
      </root>
    </mxGraphModel>
  </diagram>
</mxfile>
